<?xml version="1.0" encoding="utf-8"?>
<!-- Svg Vector Icons : http://www.onlinewebfonts.com/icon -->
<!DOCTYPE svg PUBLIC "-//W3C//DTD SVG 1.1//EN" "http://www.w3.org/Graphics/SVG/1.1/DTD/svg11.dtd">
<svg version="1.1" xmlns="http://www.w3.org/2000/svg" xmlns:xlink="http://www.w3.org/1999/xlink" x="0px" y="0px" viewBox="0 0 1000 1000" enable-background="new 0 0 1000 1000" xml:space="preserve">
<metadata> Svg Vector Icons : http://www.onlinewebfonts.com/icon </metadata>
<g><path d="M797.5,790.9c-12.5,0-22.6,10.1-22.6,22.6v131.2H268.7V265.2h506.1v128.4c0,12.5,10.1,22.6,22.6,22.6c12.5,0,22.6-10.1,22.6-22.6V255.4c0-19.6-16-35.5-35.5-35.5H259c-19.6,0-35.5,15.9-35.5,35.5v699.1c0,19.6,15.9,35.4,35.5,35.4h525.7c19.6,0,35.5-15.9,35.5-35.4v-141C820.1,801,810,790.9,797.5,790.9L797.5,790.9z M972.7,619.8c0-0.1,0.1-0.1,0.2-0.2c0.2-0.3,0.4-0.4,0.5-0.7c0.1-0.1,0.2-0.2,0.3-0.4c0.1-0.1,0.3-0.3,0.4-0.5c0.1-0.2,0.2-0.3,0.4-0.4c0.1-0.1,0.2-0.3,0.3-0.4c0.1-0.2,0.3-0.4,0.4-0.5c0.1-0.1,0.2-0.3,0.3-0.4c0.1-0.2,0.2-0.3,0.3-0.5c0.1-0.2,0.2-0.3,0.3-0.4c0.1-0.1,0.1-0.3,0.2-0.4c0.1-0.2,0.2-0.4,0.3-0.5c0-0.1,0.1-0.3,0.2-0.4c0.1-0.3,0.2-0.4,0.3-0.6c0-0.1,0.1-0.3,0.1-0.4c0.1-0.2,0.2-0.4,0.3-0.7c0-0.1,0.1-0.2,0.1-0.3c0.1-0.2,0.2-0.4,0.3-0.7c0-0.1,0-0.2,0.1-0.3c0.1-0.3,0.2-0.5,0.2-0.8c0-0.1,0-0.2,0.1-0.3c0.1-0.3,0.1-0.5,0.2-0.9c0-0.1,0-0.1,0-0.2c0.1-0.3,0.1-0.5,0.2-0.9c0-0.1,0-0.2,0-0.3c0.1-0.3,0.1-0.6,0.1-0.9c0-0.1,0-0.2,0-0.3c0-0.3,0-0.5,0.1-0.8c0-0.1,0-0.2,0-0.3c0-0.3,0-0.5,0-0.8c0-0.3,0-0.5,0-0.8c0-0.1,0-0.2,0-0.3c0-0.3,0-0.5-0.1-0.8c0-0.1,0-0.2,0-0.3c0-0.3-0.1-0.5-0.1-0.8c0-0.1,0-0.2,0-0.3c-0.1-0.3-0.1-0.5-0.2-0.9c0-0.1,0-0.1,0-0.3c0-0.3-0.1-0.5-0.2-0.8c0-0.1,0-0.2-0.1-0.3c0-0.3-0.1-0.5-0.2-0.8c0-0.1,0-0.2-0.1-0.3c-0.1-0.2-0.2-0.5-0.3-0.7c0-0.1-0.1-0.3-0.1-0.4c-0.1-0.2-0.2-0.4-0.3-0.6c-0.1-0.1-0.1-0.3-0.2-0.4c-0.1-0.2-0.2-0.4-0.3-0.6c-0.1-0.1-0.2-0.3-0.2-0.4c-0.1-0.2-0.2-0.3-0.3-0.4c-0.1-0.2-0.2-0.4-0.3-0.5c-0.1-0.2-0.2-0.3-0.3-0.4c-0.1-0.2-0.2-0.4-0.3-0.5c-0.1-0.1-0.2-0.3-0.3-0.4c-0.1-0.2-0.3-0.4-0.4-0.5c-0.1-0.2-0.2-0.3-0.3-0.4c-0.1-0.2-0.3-0.4-0.4-0.5c-0.1-0.2-0.2-0.3-0.4-0.4c-0.1-0.2-0.3-0.3-0.4-0.4c-0.2-0.2-0.3-0.4-0.4-0.6c-0.1-0.1-0.2-0.2-0.3-0.3c-0.3-0.3-0.5-0.6-0.8-0.8l-129-129.1c-8.8-8.8-23.2-8.8-32,0c-8.9,8.9-8.9,23.1,0,32l90.5,90.4H563c-12.5,0-22.6,10.1-22.6,22.6c0,12.5,10.1,22.6,22.6,22.6h338.3l-90.5,90.5c-8.9,8.9-8.9,23.1,0,32c4.4,4.4,10.2,6.6,16,6.6c5.8,0,11.6-2.2,16-6.6l129-129.1C972.2,620.4,972.5,620.1,972.7,619.8L972.7,619.8z"/><path d="M566.1,701.8h-545V10h545v157.2h-21V31H42.1v649.9h503.1V544.6h21V701.8z"/><path d="M545.2,362.2"/><path d="M543,349.6"/><path d="M333.1,351.7h366.6v21H333.1V351.7L333.1,351.7z"/><path d="M582.1,511.1L567,496.6l129.1-134.5l-128.6-134l15.1-14.5l142.6,148.5L582.1,511.1z"/></g>
</svg>